<svg xmlns="http://www.w3.org/2000/svg" viewBox="0 0 500 150">
  <!-- Icon (scaled to fit) -->
  <g transform="translate(0, 75) scale(0.0125, -0.0125)">
    <g fill="#1e3a5f" stroke="none">
      <path d="M4001 8630 c-74 -20 -108 -37 -411 -212 -227 -131 -991 -567 -1420
-811 -406 -231 -441 -258 -506 -392 -33 -70 -39 -91 -42 -167 l-4 -88 258 0
c321 -1 351 -9 395 -105 37 -80 12 -173 -57 -216 l-39 -24 -495 -5 c-467 -5
-497 -6 -527 -24 -58 -35 -78 -73 -78 -146 0 -77 24 -119 85 -150 38 -19 61
-20 680 -20 706 0 680 2 737 -63 35 -40 49 -89 40 -144 -8 -45 -27 -75 -74
-110 l-36 -28 -983 -5 c-977 -5 -983 -5 -1011 -26 -50 -37 -73 -81 -73 -142 0
-66 24 -111 78 -144 l37 -23 1062 -2 c773 -1 1072 -4 1097 -13 40 -13 93 -68
102 -106 11 -44 -2 -120 -26 -154 -13 -18 -41 -41 -64 -51 -39 -18 -81 -19
-784 -19 -827 0 -786 3 -839 -67 -39 -50 -44 -135 -11 -182 12 -19 36 -44 51
-55 28 -20 41 -21 531 -26 l503 -5 36 -28 c47 -35 66 -65 74 -110 8 -55 -5
-104 -39 -143 -56 -64 -59 -64 -358 -64 -305 0 -283 7 -256 -81 43 -140 126
-234 281 -318 55 -30 116 -64 135 -77 78 -48 572 -326 575 -322 4 4 509 842
713 1183 85 143 165 276 177 295 52 83 155 259 175 299 16 32 24 41 30 30 4
-8 49 -118 100 -246 l92 -231 -45 -74 c-24 -40 -95 -156 -157 -258 -62 -102
-136 -223 -165 -270 -133 -215 -556 -910 -560 -922 -4 -9 52 -46 162 -109 93
-53 193 -111 223 -129 30 -17 116 -66 190 -109 425 -242 394 -228 500 -237 93
-9 199 16 281 65 59 35 262 151 449 256 41 23 251 142 465 265 215 122 507
289 650 370 143 82 316 180 385 219 162 93 207 141 275 291 20 44 20 64 23
1340 2 1272 2 1296 -18 1361 -26 86 -89 181 -154 228 -45 34 -196 123 -511
301 -55 31 -224 128 -375 215 -151 87 -383 220 -515 295 -132 76 -343 197
-470 270 -126 73 -257 143 -290 155 -90 33 -166 38 -254 15z m1114 -1054 c120
-31 206 -100 257 -203 40 -81 50 -197 25 -284 -34 -117 -139 -223 -256 -259
-79 -25 -142 -25 -220 -1 -140 44 -247 167 -271 314 -42 264 212 501 465 433z
m-612 -812 c188 -43 296 -135 414 -354 130 -241 255 -470 257 -470 1 0 115 23
253 50 138 28 264 50 278 50 140 0 198 -209 80 -286 -14 -9 -128 -43 -253 -76
-125 -32 -261 -68 -302 -79 -93 -26 -160 -26 -217 2 -37 18 -58 43 -144 170
-56 82 -105 149 -109 149 -5 0 -34 -42 -66 -92 -32 -51 -89 -140 -126 -197
-38 -58 -68 -110 -68 -116 0 -12 89 -137 295 -415 154 -208 159 -217 157 -303
-2 -112 -21 -135 -278 -333 -28 -21 -141 -109 -250 -195 -317 -248 -288 -229
-351 -229 -68 0 -125 29 -156 80 -28 46 -29 134 -1 178 10 16 100 106 198 198
99 93 215 203 259 244 l80 76 -99 125 c-54 70 -173 218 -263 330 -90 112 -172
221 -182 244 -32 73 -44 167 -30 241 18 100 47 162 174 375 124 209 154 265
145 275 -3 3 -110 1 -237 -4 -224 -9 -233 -10 -257 -33 -14 -13 -93 -131 -177
-263 -83 -131 -165 -249 -182 -262 -47 -36 -104 -41 -159 -14 -57 27 -86 72
-86 134 0 53 17 91 120 266 37 63 107 185 155 270 92 164 130 214 182 236 22
10 126 17 365 24 183 6 347 12 363 14 80 8 153 5 218 -10z"/>
    </g>
  </g>

  <!-- LPEBA wordmark -->
  <text x="140" y="95"
        font-family="Inter, system-ui, -apple-system, sans-serif"
        font-size="64"
        font-weight="600"
        fill="#1e3a5f">LPEBA</text>
</svg>
